:SAMPLES-PER-SECOND 30
:FULLY-SPECIFIED
:DEGREES
293
root  28.2631 33.2407 -29.9236 -159.554 34.213 -179.506
RightUpLeg  -36.6735 -29.5134 -4.5764
RightLeg  48.9713 -3.85896 -3.93302
RightFoot  -2.97977 0.00347414 0.752571
RightToes  -28.0319 -0.130606 -0.238057
Spine  3.96833 3.70686 -3.29205
Spine1  7.03483 8.13402 -5.87976
HEad  -50.7803 -16.131 -9.24478
LeftShoulder1  -1.94126e-019 -3.10601e-018 -2.51263e-017
LeftArm  -18.8478 -12.1188 -61.1092
LeftForeArm  46.498 -74.281 -37.2782
LeftHand  -0.5196 2.78862 22.9732
RightShoulder  -4.96962e-017 0 -2.36833e-017
RightArm  -4.46636 2.26297 80.1495
RightForeArm  62.4595 25.7549 2.3879
RightHand  -1.40968 7.65563 -12.834
LeftUpLeg  -40.8963 -11.6266 15.8928
LeftLeg  26.2476 -0.846233 -0.355559
LeftFoot  7.33048 0.00508796 0.0509867
LeftToes  -44.4228 1.9075e-006 4.29692e-008
294
root  29.4754 33.1028 -29.9812 -160.205 34.1258 -179.638
RightUpLeg  -35.2477 -25.0769 -9.12481
RightLeg  39.4912 -3.70321 -2.69034
RightFoot  -0.590151 -0.00183286 0.397329
RightToes  -29.6247 -0.141345 -0.249349
Spine  3.72284 2.51132 -2.83391
Spine1  6.88351 5.33052 -4.7162
HEad  -50.9467 -12.8819 -8.33305
LeftShoulder1  -1.94126e-019 -3.10601e-018 -2.51263e-017
LeftArm  -21.8725 -5.57879 -54.2382
LeftForeArm  45.7631 -73.2744 -34.0862
LeftHand  -0.685065 1.92361 22.794
RightShoulder  -4.96962e-017 0 -2.36833e-017
RightArm  -4.63333 -2.73721 77.9935
RightForeArm  62.7566 30.3528 3.30335
RightHand  -1.24522 7.41799 -11.5888
LeftUpLeg  -39.7821 -11.0523 16.7621
LeftLeg  27.828 -1.7357 -0.782114
LeftFoot  5.48633 0.010324 -0.053966
LeftToes  -43.327 1.9075e-006 4.29692e-008
295
root  30.9148 32.7494 -30.0868 -160.984 36.1769 -178.879
RightUpLeg  -34.0076 -18.7701 -12.2789
RightLeg  31.2749 -1.22876 -0.65337
RightFoot  2.41342 0.00606087 0.221448
RightToes  -30.8646 -0.149919 -0.25793
Spine  3.42518 2.29574 -2.64113
Spine1  6.42223 4.76345 -4.31202
HEad  -50.0767 -10.0563 -7.02788
LeftShoulder1  -1.94126e-019 -3.10601e-018 -2.51263e-017
LeftArm  -22.5637 1.90612 -49.4263
LeftForeArm  54.7876 -75.0202 -37.8148
LeftHand  -0.833875 0.81012 21.0791
RightShoulder  -4.96962e-017 0 -2.36833e-017
RightArm  -7.16538 -6.96785 76.0615
RightForeArm  63.4688 34.2417 4.13729
RightHand  -1.28841 7.65445 -11.7699
LeftUpLeg  -38.4666 -8.18131 17.7459
LeftLeg  32.7618 -2.71233 -1.51258
LeftFoot  2.00842 0.00283081 9.54845e-006
LeftToes  -45.7888 1.9075e-006 4.29692e-008
296
root  32.5771 32.0837 -30.3767 -162.861 37.7698 -177.51
RightUpLeg  -31.4371 -15.7567 -13.4108
RightLeg  27.4353 3.0809 1.34757
RightFoot  9.65879 -0.0234 0.789316
RightToes  -46.2401 -0.270151 -0.34759
Spine  3.37843 2.33414 -2.06359
Spine1  6.39454 4.89395 -3.37881
HEad  -48.594 -8.16896 -5.8163
LeftShoulder1  -1.94126e-019 -3.10601e-018 -2.51263e-017
LeftArm  -22.5803 9.30709 -47.8583
LeftForeArm  65.5776 -77.7732 -49.6186
LeftHand  -0.863586 0.286386 19.6374
RightShoulder  -4.96962e-017 0 -2.36833e-017
RightArm  -11.5937 -10.8162 72.6948
RightForeArm  60.986 39.3893 5.49951
RightHand  -1.26866 7.29171 -11.91
LeftUpLeg  -36.4794 -4.63976 19.0815
LeftLeg  40.0264 -4.3022 -3.1658
LeftFoot  -2.62417 0.00412063 0.341389
LeftToes  -46.9033 1.9075e-006 4.29692e-008
297
root  34.155 31.1228 -30.6914 -165.98 38.6398 -176.93
RightUpLeg  -31.2866 -18.4476 -12.9312
RightLeg  38.141 6.41466 4.36443
RightFoot  0.0592427 -0.000485565 0.231414
RightToes  -54.007 -0.338889 -0.379852
Spine  3.41888 2.22813 -1.38365
Spine1  6.51112 4.73765 -2.22274
HEad  -47.8707 -7.24414 -4.81263
LeftShoulder1  -1.94126e-019 -3.10601e-018 -2.51263e-017
LeftArm  -21.8661 16.0913 -48.5398
LeftForeArm  81.9288 -79.8203 -68.9584
LeftHand  -0.789015 0.570466 18.9947
RightShoulder  -4.96962e-017 0 -2.36833e-017
RightArm  -16.7398 -13.3704 67.7139
RightForeArm  55.7986 46.4125 7.82955
RightHand  -1.09031 6.66633 -10.7974
LeftUpLeg  -34.6887 -1.89756 20.2408
LeftLeg  47.9989 -4.44951 -4.34055
LeftFoot  -5.51452 0.0254536 0.689995
LeftToes  -50.0572 1.9075e-006 4.29692e-008
298
root  35.4029 30.3363 -31.1018 -169.199 40.5624 -176.543
RightUpLeg  -30.8384 -18.9681 -13.2106
RightLeg  46.7892 7.68298 7.09678
RightFoot  -5.18254 -0.0550493 -0.722487
RightToes  -54.599 -0.344299 -0.381924
Spine  3.83755 1.89204 -1.04233
Spine1  7.34026 4.18772 -1.80845
HEad  -47.9886 -4.09323 -4.00905
LeftShoulder1  -1.94126e-019 -3.10601e-018 -2.51263e-017
LeftArm  -21.5126 23.9107 -50.5496
LeftForeArm  110.671 -80.3157 -98.9275
LeftHand  -0.735714 1.18502 20.2472
RightShoulder  -4.96962e-017 0 -2.36833e-017
RightArm  -21.6804 -11.1201 63.6594
RightForeArm  54.6738 50.3412 9.31979
RightHand  -1.02805 3.95692 -12.9843
LeftUpLeg  -32.7824 -0.842181 20.9626
LeftLeg  55.9178 -1.92193 -2.4901
LeftFoot  -5.13976 0.0100729 0.385917
LeftToes  -56.6193 1.9075e-006 4.29692e-008
299
root  36.547 30.0777 -31.6115 -170.512 44.6597 -176.849
RightUpLeg  -30.4411 -13.828 -13.6495
RightLeg  49.5115 6.48374 6.5859
RightFoot  -8.38007 -0.118242 -1.11827
RightToes  -54.8193 -0.343476 -0.382396
Spine  3.48226 1.73547 -1.00844
Spine1  6.61954 3.96276 -1.89849
HEad  -47.7859 0.0983252 -3.79869
LeftShoulder1  -1.94126e-019 -3.10601e-018 -2.51263e-017
LeftArm  -17.2227 31.955 -52.6383
LeftForeArm  118.671 -79.9587 -107.39
LeftHand  -0.588339 2.41849 22.8027
RightShoulder  -4.96962e-017 0 -2.36833e-017
RightArm  -27.6566 -8.56532 61.5611
RightForeArm  54.4201 55.8427 11.83
RightHand  -0.908473 1.76635 -14.8564
LeftUpLeg  -31.5288 1.48434 20.5337
LeftLeg  61.8656 0.697791 1.1107
LeftFoot  0.0714863 6.81383e-006 0.15098
LeftToes  -65.2814 1.9075e-006 4.29692e-008
300
root  37.4233 30.2833 -32.2927 -172.222 48.626 -177.636
RightUpLeg  -28.3754 -7.65567 -14.5624
RightLeg  48.586 5.04312 4.96404
RightFoot  -9.21581 -0.113024 -0.895066
RightToes  -54.3706 -0.340377 -0.382106
Spine  3.17474 1.88147 -0.934328
Spine1  5.96908 4.34583 -1.88084
HEad  -45.9677 2.99538 -3.92803
LeftShoulder1  -1.94126e-019 -3.10601e-018 -2.51263e-017
LeftArm  -12.9896 35.12 -56.6708
LeftForeArm  100.036 -80.4465 -87.6761
LeftHand  -0.882991 -0.0563642 18.844
RightShoulder  -4.96962e-017 0 -2.36833e-017
RightArm  -34.2842 -6.20314 60.4071
RightForeArm  51.63 61.0143 15.2478
RightHand  -0.704128 -0.144089 -15.5906
LeftUpLeg  -31.0405 3.1771 19.2908
LeftLeg  67.347 2.06862 4.15366
LeftFoot  10.5534 -0.0843661 1.07499
LeftToes  -71.3751 1.9075e-006 4.29692e-008
301
root  38.0256 30.8797 -33.1165 -173.992 51.7337 -179.075
RightUpLeg  -24.9489 -3.41016 -15.8691
RightLeg  43.9989 4.48011 3.7605
RightFoot  -7.93436 -0.075744 -0.577092
RightToes  -54.133 -0.340039 -0.381969
Spine  2.97996 1.81559 -0.842693
Spine1  5.56535 4.26544 -1.76295
HEad  -43.9745 5.18652 -4.56893
LeftShoulder1  -1.94126e-019 -3.10601e-018 -2.51263e-017
LeftArm  -8.35077 34.1948 -60.8617
LeftForeArm  78.1044 -79.5437 -65.6469
LeftHand  -0.915463 -1.71903 15.093
RightShoulder  -4.96962e-017 0 -2.36833e-017
RightArm  -38.6418 -3.82319 59.4382
RightForeArm  50.7228 66.3556 20.2485
RightHand  -0.305919 -3.493 -18.1875
LeftUpLeg  -31.6128 4.60885 17.1856
LeftLeg  70.9343 2.58804 6.12656
LeftFoot  23.0604 -0.563997 2.92569
LeftToes  -68.1414 1.9075e-006 4.29692e-008
302
root  38.3746 31.6685 -33.9975 -175.28 55.2355 178.754
RightUpLeg  -22.2206 -0.798031 -17.6682
RightLeg  37.3349 5.25595 3.47088
RightFoot  -4.44907 -0.0309707 -0.278921
RightToes  -54.8834 -0.346904 -0.3829
Spine  2.65037 1.74428 -0.991438
Spine1  4.88003 4.12278 -2.02132
HEad  -42.8751 7.16706 -4.77392
LeftShoulder1  -1.94126e-019 -3.10601e-018 -2.51263e-017
LeftArm  -3.28014 31.1677 -63.1543
LeftForeArm  86.2053 -80.0421 -70.0821
LeftHand  -1.04105 -2.98153 14.6263
RightShoulder  -4.96962e-017 0 -2.36833e-017
RightArm  -39.3999 -1.7958 57.7181
RightForeArm  52.0923 72.013 29.1899
RightHand  0.261008 -6.9068 -20.7386
LeftUpLeg  -32.9221 7.92986 14.2173
LeftLeg  72.8279 3.39012 8.80173
LeftFoot  27.3423 -1.10862 4.71699
LeftToes  -40.6046 1.9075e-006 4.29692e-008
303
root  38.5786 32.429 -34.7389 -175.066 58.9698 177.503
RightUpLeg  -21.0373 0.836763 -18.7696
RightLeg  30.8885 6.60951 3.37631
RightFoot  0.577367 0.000624683 0.266948
RightToes  -55.8727 -0.356006 -0.386192
Spine  2.18522 1.65906 -1.07613
Spine1  3.91755 3.9568 -2.16781
HEad  -42.8247 9.50109 -4.76194
LeftShoulder1  -1.94126e-019 -3.10601e-018 -2.51263e-017
LeftArm  -1.08723 25.4533 -63.8812
LeftForeArm  113.476 -80.9151 -90.9944
LeftHand  -1.38431 -4.74731 16.0611
RightShoulder  -4.96962e-017 0 -2.36833e-017
RightArm  -39.8184 0.63617 55.3598
RightForeArm  63.056 76.8066 43.4578
RightHand  -0.0611112 -5.05045 -16.4566
LeftUpLeg  -34.1813 12.144 12.2062
LeftLeg  70.7746 0.951179 2.22958
LeftFoot  21.9025 -0.206725 1.22985
LeftToes  -37.6286 1.9075e-006 4.29692e-008
304
root  38.7361 32.9849 -35.4082 -174.049 61.7208 177.75
RightUpLeg  -20.535 0.821266 -19.001
RightLeg  27.0311 8.30561 3.5626
RightFoot  5.84151 -0.0323074 1.11093
RightToes  -57.9609 -0.375397 -0.392623
Spine  2.23682 1.3674 -1.00748
Spine1  3.97376 3.3926 -2.05916
HEad  -44.0083 12.1708 -4.88311
LeftShoulder1  -1.94126e-019 -3.10601e-018 -2.51263e-017
LeftArm  -1.57024 15.984 -63.2561
LeftForeArm  134.42 -80.7783 -106.584
LeftHand  -1.64237 -4.47144 19.4627
RightShoulder  -4.96962e-017 0 -2.36833e-017
RightArm  -41.1084 4.27238 52.1587
RightForeArm  88.8512 80.1261 65.1087
RightHand  -0.420545 -2.06063 -14.4667
LeftUpLeg  -35.4112 15.1818 11.2702
LeftLeg  66.2836 1.15634 2.21324
LeftFoot  20.3817 -0.183216 1.1807
LeftToes  -40.3051 1.9075e-006 4.29692e-008
305
root  38.9576 33.3035 -36.0298 -172.501 63.8394 178.778
RightUpLeg  -20.2922 -0.396332 -18.6036
RightLeg  24.6027 8.93933 3.39595
RightFoot  9.83847 -0.115848 1.82501
RightToes  -60.3777 -0.398114 -0.399179
Spine  2.24057 0.846951 -1.12403
Spine1  3.91412 2.27984 -2.20618
HEad  -44.5003 14.6383 -4.732
LeftShoulder1  -1.94126e-019 -3.10601e-018 -2.51263e-017
LeftArm  -4.26926 5.41228 -60.7066
LeftForeArm  129.221 -81.0018 -101.159
LeftHand  -1.54674 -2.98176 21.4922
RightShoulder  -4.96962e-017 0 -2.36833e-017
RightArm  -42.7617 8.31218 49.0061
RightForeArm  122.307 81.1495 95.1014
RightHand  -0.481214 -1.43831 -14.0315
LeftUpLeg  -35.9291 16.8654 11.5618
LeftLeg  59.4126 4.61327 6.71963
LeftFoot  17.292 -0.383645 2.68417
LeftToes  -38.0429 1.9075e-006 4.29692e-008
306
root  39.1893 33.333 -36.6431 -170.189 65.1003 -179.357
RightUpLeg  -19.8904 -3.13251 -17.7237
RightLeg  22.9091 9.25228 3.20728
RightFoot  11.3747 -0.162217 2.1078
RightToes  -60.3024 -0.397402 -0.398989
Spine  2.06943 0.130733 -1.36404
Spine1  3.54594 0.747575 -2.57706
HEad  -44.0837 16.1771 -4.36496
LeftShoulder1  -1.94126e-019 -3.10601e-018 -2.51263e-017
LeftArm  -9.01204 -4.69924 -57.7588
LeftForeArm  100.125 -80.6599 -67.439
LeftHand  -1.53269 -2.60852 22.2575
RightShoulder  -4.96962e-017 0 -2.36833e-017
RightArm  -45.7445 11.992 45.7967
RightForeArm  142.486 79.6217 119.993
RightHand  -0.365662 -2.38714 -13.8726
LeftUpLeg  -35.4851 16.113 13.3817
LeftLeg  50.7905 7.44198 7.92807
LeftFoot  15.5935 -0.407986 3.14052
LeftToes  -34.2773 1.9075e-006 4.29692e-008
